<svg width="20" height="22" viewBox="0 0 20 22" fill="none" xmlns="http://www.w3.org/2000/svg">
<g clip-path="url(#clip0_6_1254)">
<g clip-path="url(#clip1_6_1254)">
<path d="M12.2083 12.4167H11.4842L11.2275 12.1579C12.1258 11.0654 12.6667 9.64708 12.6667 8.10417C12.6667 4.66375 9.99917 1.875 6.70833 1.875C3.4175 1.875 0.75 4.66375 0.75 8.10417C0.75 11.5446 3.4175 14.3333 6.70833 14.3333C8.18417 14.3333 9.54083 13.7679 10.5858 12.8287L10.8333 13.0971V13.8542L15.4167 18.6362L16.7825 17.2083L12.2083 12.4167ZM6.70833 12.4167C4.42583 12.4167 2.58333 10.4904 2.58333 8.10417C2.58333 5.71792 4.42583 3.79167 6.70833 3.79167C8.99083 3.79167 10.8333 5.71792 10.8333 8.10417C10.8333 10.4904 8.99083 12.4167 6.70833 12.4167Z" fill="#9F9F9F"/>
</g>
</g>
<defs>
<clipPath id="clip0_6_1254">
<rect width="20" height="22" fill="white"/>
</clipPath>
<clipPath id="clip1_6_1254">
<rect width="22" height="23" fill="white" transform="translate(-2 -1)"/>
</clipPath>
</defs>
</svg>
