<svg width="45" height="45" viewBox="0 0 45 45" fill="none" xmlns="http://www.w3.org/2000/svg">
<circle cx="22.5" cy="22.5" r="18.3636" fill="#D3D3D3" stroke="#D3D3D3"/>
<path d="M22.5 4.54544C12.589 4.54544 4.54541 12.5891 4.54541 22.5C4.54541 32.4109 12.589 40.4545 22.5 40.4545C32.4109 40.4545 40.4545 32.4109 40.4545 22.5C40.4545 12.5891 32.4109 4.54544 22.5 4.54544ZM22.5 11.7273C25.9652 11.7273 28.784 14.5461 28.784 18.0114C28.784 21.4766 25.9652 24.2954 22.5 24.2954C19.0347 24.2954 16.2159 21.4766 16.2159 18.0114C16.2159 14.5461 19.0347 11.7273 22.5 11.7273ZM22.5 36.8636C18.8552 36.8636 14.5461 35.3914 11.4759 31.6927C14.5102 29.3227 18.3345 27.8864 22.5 27.8864C26.6654 27.8864 30.4897 29.3227 33.524 31.6927C30.4538 35.3914 26.1447 36.8636 22.5 36.8636Z" fill="#4E4E50"/>
</svg>
