<svg width="48" height="48" viewBox="0 0 48 48" fill="none" xmlns="http://www.w3.org/2000/svg">
<g clip-path="url(#clip0_6_1188)" filter="url(#filter0_d_6_1188)">
<path d="M24 16C19.58 16 16 19.58 16 24C16 28.42 19.58 32 24 32C28.42 32 32 28.42 32 24C32 19.58 28.42 16 24 16ZM41.88 22C40.96 13.66 34.34 7.04 26 6.12V2H22V6.12C13.66 7.04 7.04 13.66 6.12 22H2V26H6.12C7.04 34.34 13.66 40.96 22 41.88V46H26V41.88C34.34 40.96 40.96 34.34 41.88 26H46V22H41.88ZM24 38C16.26 38 10 31.74 10 24C10 16.26 16.26 10 24 10C31.74 10 38 16.26 38 24C38 31.74 31.74 38 24 38Z" fill="#EB4F97"/>
</g>
<defs>
<filter id="filter0_d_6_1188" x="-1" y="-1" width="50" height="50" filterUnits="userSpaceOnUse" color-interpolation-filters="sRGB">
<feFlood flood-opacity="0" result="BackgroundImageFix"/>
<feColorMatrix in="SourceAlpha" type="matrix" values="0 0 0 0 0 0 0 0 0 0 0 0 0 0 0 0 0 0 127 0" result="hardAlpha"/>
<feOffset/>
<feGaussianBlur stdDeviation="0.5"/>
<feColorMatrix type="matrix" values="0 0 0 0 0 0 0 0 0 0 0 0 0 0 0 0 0 0 0.8 0"/>
<feBlend mode="normal" in2="BackgroundImageFix" result="effect1_dropShadow_6_1188"/>
<feBlend mode="normal" in="SourceGraphic" in2="effect1_dropShadow_6_1188" result="shape"/>
</filter>
<clipPath id="clip0_6_1188">
<rect width="48" height="48" fill="white"/>
</clipPath>
</defs>
</svg>
