<svg width="29" height="29" viewBox="0 0 29 29" fill="none" xmlns="http://www.w3.org/2000/svg">
<g clip-path="url(#clip0_6_1970)">
<path d="M14.5 2.41669C7.83001 2.41669 2.41667 7.83002 2.41667 14.5C2.41667 21.17 7.83001 26.5834 14.5 26.5834C21.17 26.5834 26.5833 21.17 26.5833 14.5C26.5833 7.83002 21.17 2.41669 14.5 2.41669ZM14.5 7.25002C16.8321 7.25002 18.7292 9.1471 18.7292 11.4792C18.7292 13.8113 16.8321 15.7084 14.5 15.7084C12.1679 15.7084 10.2708 13.8113 10.2708 11.4792C10.2708 9.1471 12.1679 7.25002 14.5 7.25002ZM14.5 24.1667C12.0471 24.1667 9.14709 23.1759 7.08084 20.6867C9.12292 19.0917 11.6967 18.125 14.5 18.125C17.3033 18.125 19.8771 19.0917 21.9192 20.6867C19.8529 23.1759 16.9529 24.1667 14.5 24.1667Z" fill="#7B7B6E"/>
</g>
<defs>
<clipPath id="clip0_6_1970">
<rect width="29" height="29" fill="white"/>
</clipPath>
</defs>
</svg>
