<svg width="27" height="27" viewBox="0 0 27 27" fill="none" xmlns="http://www.w3.org/2000/svg">
<g clip-path="url(#clip0_6_1962)">
<path d="M13.5 2.25C7.29 2.25 2.25 7.29 2.25 13.5C2.25 19.71 7.29 24.75 13.5 24.75C19.71 24.75 24.75 19.71 24.75 13.5C24.75 7.29 19.71 2.25 13.5 2.25ZM12.375 22.4212C7.93125 21.87 4.5 18.09 4.5 13.5C4.5 12.8025 4.59 12.1388 4.73625 11.4862L10.125 16.875V18C10.125 19.2375 11.1375 20.25 12.375 20.25V22.4212ZM20.1375 19.5637C19.845 18.6525 19.0125 18 18 18H16.875V14.625C16.875 14.0063 16.3687 13.5 15.75 13.5H9V11.25H11.25C11.8687 11.25 12.375 10.7437 12.375 10.125V7.875H14.625C15.8625 7.875 16.875 6.8625 16.875 5.625V5.16375C20.1712 6.5025 22.5 9.73125 22.5 13.5C22.5 15.84 21.6 17.9662 20.1375 19.5637Z" fill="#7B7B6E"/>
</g>
<defs>
<clipPath id="clip0_6_1962">
<rect width="27" height="27" fill="white"/>
</clipPath>
</defs>
</svg>
